<svg xmlns="http://www.w3.org/2000/svg" viewBox="0 0 432 64" fill-rule="evenodd" xmlns:v="https://vecta.io/nano"><path d="M31.942 48.226l.392-13.07h-1.79c-1.902 8.338-4.476 10.366-11.218 10.704l-4.392.168v-32.62c0-2.648.616-3.436 4.364-3.972V7.548H1v1.888c3.44.564 4.028 1.212 4.028 3.746V42.59c0 2.536-.588 3.182-4.028 3.746v1.888h30.942 0v.002zm18.996 0v-1.888c-2.91-.45-3.414-1.014-3.414-2.986V19.55l-9.204 1.12v22.682c0 1.972-.504 2.536-3.414 2.986v1.888h16.03 0 .002zm18.002 2.062c4.196-.898 7.96.086 8.406 2.2s-2.594 4.554-6.792 5.452-7.96-.086-8.406-2.2 2.594-4.554 6.792-5.452zM197.158 19.87v23.802c0 1.972.504 2.536 3.414 2.986h0v1.888H184.54v-1.888c2.91-.45 3.414-1.014 3.414-2.986V20.99l9.204-1.12h0zM67.672 22.702c3.218 0 5.826 2.626 5.826 5.866s-2.608 5.866-5.826 5.866-5.826-2.626-5.826-5.866 2.608-5.866 5.826-5.866h0 0zM68.088 62c9.036 0 15.722-4.254 15.722-10.478 0-5.408-4.084-8.62-12.002-8.62h-5.232c-2.994 0-4.504-.874-4.504-2.478 0-1.324 1.036-2.254 2.882-2.732 1.202.168 2.238.254 3.302.254 7.554 0 13.512-3.352 13.512-9.098 0-2.846-1.706-5.324-4.336-6.422l7.498.564v-3.046l-9.848.648c-1.846-.732-4.364-1.212-7.05-1.212-7.806 0-13.512 3.802-13.512 9.492 0 4.62 3.832 7.55 8.728 8.338-5.4.816-8.588 3.296-8.588 6.844 0 3.578 3.554 5.83 8.728 5.888-6.938.422-9.96 2.508-9.96 5.408 0 3.944 5.456 6.648 14.66 6.648h0V62zm34.55-13.774v-1.888c-2.546-.422-2.938-.902-2.938-2.816V26.198c.84-1.494 2.63-2.564 4.98-2.564 3.274 0 5.148 1.916 5.148 5.662v14.226c0 1.916-.392 2.394-2.91 2.816v1.888h15.554v-1.888c-2.938-.45-3.414-1.014-3.414-2.986V28.478c0-6.028-3.888-9.098-9.68-9.098-4.812 0-8.28 2.198-9.736 5.268L99.7 6 87.082 7.55v1.774l1.594.48c1.566.508 1.818.93 1.818 2.704v30.846c0 1.972-.504 2.536-3.414 2.986v1.888h15.554 0l.004-.002zm33.908.592c3.524 0 6.798-1.494 8.114-3.126v-1.888c-.784.62-2.042 1.07-3.358 1.07-2.49 0-4.168-1.464-4.168-5.492V22.65l7.162.366v-3.072l-7.162.366v-6.754l-12.45 7.826v1.634h3.302v16.788c0 6.508 3.832 9.014 8.56 9.014h0zm25.542-.592v-1.888c-2.546-.422-2.938-.902-2.938-2.816V26.198c.84-1.494 2.63-2.564 4.98-2.564 3.274 0 5.148 1.916 5.148 5.662v14.226c0 1.916-.392 2.394-2.91 2.816v1.888h15.554v-1.888c-2.938-.45-3.414-1.014-3.414-2.986V28.478c0-6.028-3.888-9.098-9.68-9.098-4.84 0-8.336 2.226-9.764 5.324V19.55L146.53 21.1v1.774l1.594.48c1.566.508 1.818.93 1.818 2.704v17.296c0 1.972-.504 2.536-3.414 2.986v1.888h15.554 0l.006-.002zm94.478 2.04c4.196-.898 7.96.086 8.406 2.2s-2.594 4.554-6.792 5.452-7.96-.086-8.406-2.2 2.594-4.554 6.792-5.452zm-31.14-30.886c5.792 0 9.68 3.07 9.68 9.098h0v14.874c0 1.972.476 2.536 3.414 2.986h0v1.888h-15.554v-1.888c2.518-.422 2.91-.902 2.91-2.816h0V29.296c0-3.746-1.874-5.662-5.148-5.662-2.35 0-4.14 1.07-4.98 2.564h0v17.324c0 1.916.392 2.394 2.938 2.816h0v1.888h-15.554v-1.888c2.91-.45 3.414-1.014 3.414-2.986h0V26.056c0-1.774-.252-2.198-1.818-2.704h0l-1.594-.48v-1.774l12.534-1.55v5.156c1.426-3.098 4.924-5.324 9.764-5.324h0-.006zm29.892 3.322c3.218 0 5.826 2.626 5.826 5.866s-2.608 5.866-5.826 5.866-5.826-2.626-5.826-5.866 2.608-5.866 5.826-5.866zm.21 39.298c9.036 0 15.722-4.254 15.722-10.478 0-5.408-4.084-8.62-12.002-8.62h-5.232c-2.994 0-4.504-.874-4.504-2.478 0-1.324 1.036-2.254 2.882-2.732 1.202.168 2.238.254 3.302.254 7.554 0 13.512-3.352 13.512-9.098 0-2.846-1.706-5.324-4.336-6.422l7.498.564v-3.046l-9.848.648c-1.846-.732-4.364-1.212-7.05-1.212-7.806 0-13.512 3.802-13.512 9.492 0 4.62 3.832 7.55 8.728 8.338-5.4.816-8.588 3.296-8.588 6.844 0 3.578 3.554 5.83 8.728 5.888-6.938.422-9.96 2.508-9.96 5.408 0 3.944 5.456 6.648 14.66 6.648h0V62zm29.516-2.536c11.022-4.338 16.898-8.874 16.898-18.986V13.184c0-2.536.588-3.182 4.028-3.746V7.55h-17.96v1.888c3.44.564 4.028 1.212 4.028 3.746v26.704c0 9.832-1.93 14.056-7.778 17.944l.784 1.634h0v-.002zm31.362-10.648c4.588 0 8.196-1.944 9.456-4.732.644 2.986 3.608 4.592 6.966 4.592 2.462 0 4.588-.676 5.764-1.522V45.38c-.308.112-.728.168-1.202.168-1.51 0-2.714-.986-2.714-3.324V29.126c0-6.76-4.756-9.746-12.674-9.746-7.778 0-12.786 3.154-12.786 7.126 0 2.282 1.818 3.916 4.196 3.916s4.196-1.746 4.196-4c0-1.662-.952-3.042-2.35-3.634a10.58 10.58 0 0 1 3.748-.648c4.196 0 6.658 1.916 6.658 6.93v2.592l-5.736 1.212c-8.616 1.746-11.806 4.676-11.806 8.986 0 4.112 3.358 6.958 8.28 6.958h0l.004-.002zm4.896-3.916c-2.35 0-4.14-1.578-4.14-4.508 0-3.042 1.678-5.014 6.322-6.084l2.182-.48v8.732c-.812 1.494-2.378 2.338-4.364 2.338h0v.002zm35.754 3.324v-1.888c-3.302-.48-3.832-1.042-3.832-3.268V28.702c1.26-1.184 4.224-2 7.078-2 1.622 0 3.246.254 4.056.564.364-.676.644-1.916.644-3.154 0-2.536-1.176-4.62-3.804-4.62-2.882 0-5.344 2.394-8.086 7.916l.028-7.86-12.534 1.55v1.774l1.594.48c1.566.508 1.818.93 1.818 2.704V43.38c0 1.972-.504 2.508-3.414 2.958v1.888h16.45 0l.002-.002z" fill="#fdfdfe" fill-rule="nonzero"/><g fill="#ebf92f"><circle cx="43" cy="8" r="6"/><circle cx="192.178" cy="8.266" r="6"/><path d="M418.342 2a1.34 1.34 0 0 0-.752.262l-28.306 21.11c-.178.133-.322.312-.415.515a1.34 1.34 0 0 0-.116.651c.017.222.09.44.212.626s.291.342.487.446l12.166 6.494-18.345 26.391c-.895 1.561.579 2.574 1.917 1.796l35.713-28.719c.17-.137.306-.317.391-.518s.12-.424.099-.642-.095-.43-.216-.612-.287-.334-.48-.436l-11.622-6.209 10.468-19.19a1.34 1.34 0 0 0 .162-.67 1.34 1.34 0 0 0-.195-.661c-.121-.198-.296-.364-.5-.474s-.437-.166-.669-.16h0z"/></g></svg>